<?xml version="1.0" encoding="UTF-8"?>
<svg version="1.1" viewBox="0 0 1200 1292" width="1280" height="1280" xmlns="http://www.w3.org/2000/svg">
<path transform="translate(34)" d="m0 0h1132v717l-2 30-4 33-6 32-6 26-9 30-9 26-12 29-16 33-14 25-15 24-12 17-16 21-9 11-12 14-14 15-26 26-8 7-15 13-17 13-16 12-18 12-19 12-27 15-26 13-31 13-34 12-28 8-30 7-35 6-25 3-29 2h-52l-29-2-32-4-33-6-36-9-29-9-32-12-29-13-24-12-24-14-16-10-22-15-21-16-11-9-15-13-13-12-28-28-7-8-12-14-13-17-12-16-14-21-15-25-12-22-14-29-11-27-12-35-10-37-7-36-4-29-2-21-1-18z" fill="#DA3721"/>
<path transform="translate(613,905)" d="m0 0h60l25 2 26 4 25 6 16 6 16 8 12 8 10 9 13 17 12 15 13 17 11 14 28 35-4 4-18 13-20 13-26 15-29 14-28 11-27 9-32 8-28 5-24 3-13 1h-58l-30-3-30-5-29-7-26-8-27-10-26-12-27-14-21-13-16-11-21-16-14-12-12-11-26-26-18-22 4-2 44-12 57-14 56-12 42-8 49-8 56-7 36-3z" fill="#EA9F75"/>
<path transform="translate(580,243)" d="m0 0h51l32 3 30 5 30 7 29 9 29 11 33 16 22 12 23 15 14 10 14 11 13 11 10 9 12 11 9 9 7 8 10 11 8 10 1 3-44 12-61 15-56 12-48 9-44 7-47 6-46 4-19 1h-54l-27-2-32-5-23-6-20-8-16-9-13-11-8-9-12-16-11-14-14-18-11-14-13-16-8-10-2-4 16-12 21-14 15-9 22-12 23-11 28-11 24-8 36-9 28-5 25-3z" fill="#FEFEFE"/>
<path transform="translate(368,507)" d="m0 0h18l21 2 19 4 15 5 17 8 15 10 13 11 7 7 11 14 13 16 10 13 55 70 12 15-1 2-8-8-14-10-17-9-19-7-19-5-24-4-30-2h-18l-33 2-33 4-35 6-41 9-44 12-38 12-35 12-28 11h-3v-44l4-36 5-28 7-28 5-1 18-10 26-13 31-13 28-10 25-7 22-5 19-3z" fill="#EA9F75"/>
<path transform="translate(1049,680)" d="m0 0h2v37l-3 34-5 30-7 30-2 5-6 2-24 13-25 12-27 11-35 12-32 8-24 4-25 2h-15l-23-2-19-4-20-7-17-9-14-10-13-12-9-10-10-13-77-98-7-8 1-2 8 7 11 8 14 8 14 6 22 7 21 4 16 2 14 1h38l36-3 35-5 36-7 38-9 42-12 46-15 35-13z" fill="#FDFDFD"/>
</svg>
